<?xml version="1.0" standalone="no"?><!DOCTYPE svg PUBLIC "-//W3C//DTD SVG 1.1//EN" "http://www.w3.org/Graphics/SVG/1.1/DTD/svg11.dtd"><svg t="1585193980793" class="icon" viewBox="0 0 1024 1024" version="1.1" xmlns="http://www.w3.org/2000/svg" p-id="2636" xmlns:xlink="http://www.w3.org/1999/xlink" width="200" height="200"><defs><style type="text/css"></style></defs><path d="M800 943H224c-17.7 0-32-14.3-32-32V303c0-17.7 14.3-32 32-32s32 14.3 32 32v576h512V303c0-17.7 14.3-32 32-32s32 14.3 32 32v608c0 17.7-14.3 32-32 32zM576 175v-62c0-17.7-14.3-32-32-32h-64c-17.7 0-32 14.3-32 32v62H160c-17.7 0-32 14.3-32 32s14.3 32 32 32h704c17.7 0 32-14.3 32-32s-14.3-32-32-32H576z" p-id="2637"></path><path d="M416.1 751c-17.7 0-32-14.3-32-32V399c0-17.7 14.3-32 32-32s32 14.3 32 32v320c0 17.7-14.4 32-32 32zM608.1 750.8c-17.7 0-32-14.3-32-32v-320c0-17.7 14.3-32 32-32s32 14.3 32 32v320c0 17.7-14.3 32-32 32z" p-id="2638"></path></svg>